<?xml version="1.0" standalone="no"?>
<!DOCTYPE svg PUBLIC "-//W3C//DTD SVG 20010904//EN"
 "http://www.w3.org/TR/2001/REC-SVG-20010904/DTD/svg10.dtd">
<svg version="1.0" xmlns="http://www.w3.org/2000/svg"
 width="579.000000pt" height="749.000000pt" viewBox="0 0 579.000000 749.000000"
 preserveAspectRatio="xMidYMid meet">
<metadata>
Created by potrace 1.15, written by Peter Selinger 2001-2017
</metadata>
<g transform="translate(0.000000,749.000000) scale(0.100000,-0.100000)"
fill="rgb(36, 90, 87)" stroke="none">
<path d="M5515 7389 c-126 -88 -246 -167 -307 -202 -26 -15 -89 -62 -140 -105
-51 -43 -107 -88 -125 -101 l-32 -24 -173 13 c-220 16 -439 17 -748 6 -135 -5
-256 -9 -270 -9 -14 1 -56 -6 -94 -15 -77 -18 -78 -18 -188 61 -71 50 -206
137 -215 137 -3 0 -21 11 -39 25 -18 14 -35 25 -39 25 -3 0 -30 11 -58 24 -43
21 -262 113 -332 141 -28 11 -46 7 -73 -18 -36 -33 -43 -51 -48 -132 -6 -74
-5 -75 19 -75 23 0 25 4 29 73 6 87 23 127 53 127 11 0 25 -4 31 -9 5 -4 45
-23 89 -41 44 -18 107 -46 140 -62 55 -27 82 -42 222 -120 26 -15 84 -52 128
-82 44 -30 105 -72 134 -92 l55 -36 60 21 c58 20 84 21 476 24 268 2 470 -2
570 -10 275 -22 374 -25 390 -13 13 9 13 12 -3 24 -10 8 -27 12 -37 9 -28 -7
-25 7 8 35 52 46 207 158 272 197 87 51 129 78 248 158 56 37 106 67 111 67 6
0 16 -18 22 -40 11 -37 15 -40 47 -40 27 0 33 3 28 16 -3 9 -6 22 -6 29 0 8
-6 20 -13 27 -8 7 -19 23 -26 36 -20 37 -57 26 -166 -49z"/>
<path d="M5505 7140 c-93 -98 -171 -184 -174 -192 -4 -12 -84 -112 -107 -133
-24 -21 -44 -61 -44 -85 0 -24 2 -25 47 -21 43 3 46 2 34 -13 -11 -14 -11 -16
3 -16 9 0 16 4 16 9 0 5 24 8 54 6 46 -2 111 -23 166 -55 8 -5 38 -20 67 -35
51 -25 73 -58 73 -106 0 -15 8 -19 36 -19 l35 0 -2 58 c-1 33 1 64 4 70 4 5 3
21 -2 34 -6 16 -4 72 4 154 17 167 27 426 19 481 -6 39 -9 43 -33 42 -20 -1
-63 -40 -196 -179z" fill="coral" stroke="black"/>
<path d="M2635 7098 c2 -13 9 -77 15 -143 6 -66 18 -139 26 -163 8 -23 14 -51
14 -62 0 -32 29 -109 82 -216 28 -58 51 -118 53 -140 2 -41 13 -124 21 -162 4
-19 10 -23 37 -20 31 3 32 4 33 51 1 61 13 74 54 57 42 -17 63 1 51 45 -6 23
-3 36 11 58 11 15 25 27 32 27 7 0 21 9 31 20 10 11 23 20 29 20 6 0 19 14 28
30 16 29 72 70 94 70 7 0 14 -10 17 -22 4 -12 9 -19 13 -15 4 3 1 20 -6 37
-10 24 -18 30 -44 30 -28 0 -50 18 -166 137 -317 321 -383 383 -407 383 -19 0
-22 -4 -18 -22z" fill="coral" stroke="black"/>
<path d="M5646 6454 c-3 -9 -6 -34 -6 -57 0 -23 -5 -60 -10 -82 -5 -22 -12
-80 -16 -130 -4 -52 -16 -119 -30 -159 -38 -111 -373 -750 -470 -896 -94 -141
-167 -230 -190 -230 -8 0 -18 -10 -23 -22 -18 -45 -108 -105 -192 -128 -63
-16 -373 3 -479 30 -68 18 -176 57 -218 80 -9 5 -42 17 -72 26 -104 32 -209
99 -315 201 -28 26 -67 63 -89 81 -21 18 -41 45 -45 60 -4 15 -16 29 -27 30
-45 9 -112 98 -245 328 -84 145 -135 243 -261 499 -33 68 -50 91 -66 93 l-22
3 20 -51 c11 -29 31 -71 43 -94 13 -22 35 -74 51 -113 15 -40 37 -87 49 -105
12 -18 29 -46 37 -63 8 -16 24 -46 36 -65 11 -19 39 -69 61 -110 69 -132 162
-267 240 -350 64 -69 71 -215 28 -592 -7 -64 -16 -121 -19 -127 -4 -5 -11 -36
-17 -68 -21 -116 -59 -261 -105 -398 -35 -104 -48 -157 -49 -205 -1 -36 -7
-87 -13 -115 -6 -27 -16 -84 -23 -125 -11 -72 -29 -143 -85 -330 -34 -111
-114 -350 -126 -373 -5 -10 -31 -86 -58 -170 -27 -84 -67 -201 -89 -262 -46
-130 -85 -269 -106 -380 -29 -153 -114 -413 -189 -577 -14 -31 -26 -59 -26
-61 0 -3 -25 -47 -55 -98 -30 -52 -55 -98 -55 -102 0 -17 -73 -104 -153 -185
-121 -122 -177 -134 -340 -76 -50 18 -94 45 -166 104 -99 79 -150 138 -190
218 -25 49 -81 218 -81 244 0 9 -9 54 -20 100 -37 151 -47 846 -20 1338 27
479 13 1430 -20 1430 -5 0 -6 9 -3 20 9 35 -62 411 -80 422 -7 4 -9 8 -6 8 9
0 -24 121 -55 203 -36 95 -185 397 -196 397 -5 0 -7 7 -4 15 4 8 2 15 -2 15
-5 0 -15 15 -23 33 -8 17 -20 39 -27 47 -31 34 -94 111 -107 131 -9 12 -20 18
-25 15 -5 -3 -9 2 -8 11 0 10 -3 18 -9 18 -5 0 -31 22 -57 48 -26 26 -54 47
-63 47 -9 0 -14 4 -11 9 7 11 -22 23 -35 16 -5 -4 -7 0 -4 7 6 16 -113 78
-205 107 -68 22 -180 28 -180 11 0 -5 -8 -10 -19 -10 -46 0 -77 -22 -111 -78
-19 -31 -50 -75 -70 -97 -45 -50 -73 -109 -65 -136 4 -12 0 -31 -11 -47 -20
-30 -26 -148 -8 -160 5 -4 11 -19 12 -33 1 -15 18 -45 38 -68 30 -32 44 -41
71 -41 18 0 33 5 33 11 0 5 4 7 10 4 16 -10 39 9 73 61 40 61 74 70 103 27 32
-47 31 -278 -2 -643 -1 -19 -10 -80 -18 -135 -42 -279 -56 -382 -60 -455 -2
-25 -8 -61 -14 -80 -9 -31 -14 -81 -28 -285 -1 -27 -8 -99 -13 -160 -6 -60
-11 -132 -11 -160 1 -27 -2 -63 -5 -80 -3 -16 -8 -147 -11 -290 -9 -430 22
-846 90 -1170 8 -39 17 -86 20 -105 12 -82 66 -268 110 -385 38 -99 171 -366
195 -392 12 -12 21 -26 21 -31 0 -33 361 -414 470 -496 30 -22 57 -43 60 -47
3 -3 35 -27 72 -53 86 -60 204 -112 293 -127 86 -14 77 -14 152 -5 54 6 62 5
57 -9 -10 -24 7 -21 196 34 143 42 186 51 238 50 72 -2 96 -11 100 -39 6 -42
18 -49 62 -38 22 6 38 14 35 18 -13 21 152 27 260 11 33 -5 82 -12 110 -16 59
-7 75 -19 75 -53 0 -52 153 -272 189 -272 6 0 15 9 21 20 6 11 19 20 29 20 10
0 26 9 37 21 12 13 26 18 39 15 12 -3 29 0 38 7 19 14 67 130 67 163 0 18 10
24 58 38 32 9 74 16 93 16 19 0 63 9 97 19 l64 20 23 -52 c41 -93 139 -168
198 -153 12 3 38 18 57 35 l35 29 0 94 0 95 45 11 c39 9 46 8 55 -6 6 -9 33
-41 61 -69 47 -49 55 -53 97 -53 37 0 53 6 81 31 34 29 43 51 50 122 1 15 8
33 14 39 7 7 12 16 12 20 0 5 15 30 33 56 34 50 50 87 88 212 12 41 29 79 36
83 18 11 15 86 -4 108 -8 9 -16 39 -18 65 -1 27 -6 60 -9 74 -4 21 -12 148
-17 305 -3 89 4 293 12 345 4 30 10 71 13 90 3 19 10 62 16 95 6 33 13 76 16
95 3 19 7 42 10 50 3 8 8 38 10 65 6 74 41 245 94 470 37 154 63 294 62 323
-1 13 2 31 7 40 5 9 12 42 16 72 18 149 74 406 108 495 25 67 70 240 123 475
41 184 51 240 53 320 4 113 5 419 1 467 -2 39 2 48 46 99 77 88 130 156 150
191 11 17 51 85 91 150 39 65 84 144 100 176 15 32 87 176 160 320 161 320
160 319 167 387 3 30 8 82 12 115 3 33 10 78 15 100 4 22 9 59 9 83 0 38 -2
42 -24 42 -13 0 -27 -7 -30 -16z m-5157 -489 c5 2 27 -5 50 -16 23 -11 47 -17
53 -13 6 4 8 3 5 -3 -4 -6 8 -17 26 -24 17 -7 37 -18 44 -24 6 -5 26 -21 45
-35 75 -57 210 -196 268 -278 52 -73 207 -367 247 -467 63 -161 124 -408 164
-670 30 -194 46 -949 25 -1245 -7 -113 -15 -252 -16 -310 -1 -58 -5 -152 -10
-210 -7 -101 -5 -694 4 -735 2 -11 7 -67 11 -125 15 -225 92 -522 153 -588 6
-7 12 -17 12 -22 0 -28 212 -202 297 -244 55 -28 151 -49 207 -47 58 2 119 42
232 155 83 83 114 123 173 222 143 245 251 528 320 844 26 117 150 502 266
825 41 114 155 488 179 585 23 94 46 236 51 305 2 35 23 118 49 195 65 196
108 378 145 615 17 109 31 344 24 403 -3 28 -3 52 1 52 4 0 21 -13 39 -29 162
-144 236 -194 352 -235 39 -13 104 -38 145 -56 123 -52 202 -68 399 -81 224
-15 287 -6 384 51 81 47 79 51 77 -133 -1 -73 -1 -163 -1 -202 0 -85 -22 -251
-49 -360 -11 -44 -34 -141 -50 -215 -17 -74 -39 -162 -50 -195 -11 -33 -33
-103 -50 -155 -17 -52 -40 -144 -50 -205 -84 -492 -99 -569 -139 -738 -32
-130 -53 -239 -72 -367 -6 -41 -20 -120 -30 -175 -49 -251 -67 -527 -51 -805
l8 -154 -41 -81 c-46 -91 -60 -127 -82 -205 -8 -30 -18 -59 -22 -65 -5 -5 -16
-41 -26 -78 -29 -107 -38 -71 -39 140 0 181 4 264 25 478 5 55 14 159 19 230
9 127 24 252 36 308 6 30 11 86 18 198 2 36 9 109 16 162 6 53 9 101 6 106 -3
5 -14 7 -25 4 -21 -5 -30 -42 -56 -218 -9 -60 -20 -117 -25 -125 -5 -8 -4 -22
1 -32 6 -11 2 -73 -10 -175 -11 -87 -25 -221 -31 -298 -7 -77 -18 -207 -25
-290 -11 -130 -12 -470 -2 -583 4 -43 21 -60 42 -42 13 11 18 10 30 -6 58 -77
31 -166 -41 -135 -35 14 -94 64 -94 80 0 6 -4 11 -9 11 -5 0 -11 8 -14 18 -48
167 -49 174 -51 397 -2 134 2 271 10 350 7 72 16 175 19 230 22 390 56 636
107 773 23 61 18 73 -19 52 -41 -24 -96 -205 -108 -355 -3 -49 -15 -173 -26
-275 -10 -102 -19 -217 -19 -255 0 -39 -6 -122 -14 -185 -19 -157 -14 -539 8
-633 20 -86 21 -82 -9 -95 -38 -17 -50 -15 -65 13 -7 14 -19 25 -26 25 -19 0
-23 24 -24 140 -3 233 10 905 19 1060 6 91 13 242 15 335 7 241 14 332 26 356
9 17 8 23 -6 33 -14 11 -16 22 -9 82 5 38 8 75 8 82 0 6 -1 28 -2 47 -1 24 -5
33 -14 29 -12 -4 -26 -58 -43 -159 -2 -16 -7 -36 -9 -43 -2 -7 -7 -151 -10
-320 -3 -169 -10 -377 -15 -462 -5 -85 -12 -390 -15 -677 -2 -286 -5 -525 -7
-530 -6 -20 24 -54 45 -51 27 4 35 -22 36 -123 1 -85 -10 -104 -52 -94 -35 9
-103 72 -127 117 -40 76 -64 215 -85 508 -9 118 -22 289 -30 380 -8 91 -15
208 -15 261 0 52 -4 142 -9 200 -9 96 -23 340 -36 619 -3 63 -14 187 -25 275
-11 88 -20 177 -20 198 0 33 -3 37 -25 37 -24 0 -25 -2 -25 -64 0 -36 9 -136
20 -223 10 -87 21 -228 24 -313 9 -267 16 -402 26 -500 5 -52 12 -167 15 -255
3 -88 13 -232 20 -320 8 -88 17 -198 20 -245 9 -149 24 -313 35 -375 17 -102
17 -102 -42 -114 -29 -5 -82 -15 -118 -20 -36 -6 -75 -13 -87 -17 -19 -5 -23
-3 -23 17 0 13 -9 65 -19 114 -11 50 -27 137 -36 195 -35 233 -82 326 -215
426 -99 75 -184 114 -251 114 -80 0 -209 -35 -303 -82 -169 -85 -283 -265
-300 -476 -3 -30 -10 -59 -16 -67 -6 -7 -14 -42 -18 -79 -5 -36 -10 -68 -13
-70 -7 -7 -235 -76 -250 -76 -10 1 -9 5 5 15 32 24 14 25 -53 5 -75 -24 -132
-25 -226 -5 -171 36 -354 158 -601 401 -156 153 -200 204 -276 312 -164 237
-317 658 -364 1002 -2 19 -9 60 -14 90 -13 71 -37 287 -47 420 -13 177 -7 844
11 1050 18 214 52 544 68 645 43 292 79 580 75 597 -3 9 -1 18 4 20 5 2 10
115 12 253 2 293 -1 308 -68 313 -51 4 -102 -28 -130 -81 -38 -71 -98 -55
-144 37 -52 103 -33 244 49 356 26 36 61 86 78 112 39 58 78 72 173 66 47 -4
69 -2 70 6 1 6 3 3 6 -7 2 -9 8 -15 12 -12z m2309 -4805 c24 -11 58 -30 75
-42 17 -13 43 -29 57 -37 14 -7 34 -19 45 -25 39 -21 92 -91 130 -171 36 -76
38 -87 45 -215 4 -74 11 -146 17 -160 6 -14 8 -31 6 -38 -3 -7 3 -19 12 -26
10 -7 19 -31 22 -59 5 -39 3 -48 -13 -54 -40 -14 -46 -53 -9 -53 20 0 25 -5
25 -24 0 -21 -18 -85 -26 -95 -6 -7 -74 33 -74 44 0 5 -7 23 -15 39 -9 16 -12
39 -9 53 6 21 3 24 -12 21 -53 -10 -55 -129 -3 -172 37 -31 37 -42 2 -21 -33
20 -63 74 -63 116 0 17 -6 32 -15 35 -19 8 -45 -19 -45 -45 0 -28 -14 -26 -30
4 -7 14 -17 25 -22 25 -5 0 -9 30 -8 68 1 37 -4 111 -10 164 -9 81 -17 107
-43 149 l-32 50 -61 -4 c-78 -6 -117 -30 -245 -155 -96 -93 -110 -101 -149
-85 -23 9 -29 10 -124 11 -77 2 -87 4 -76 17 10 12 10 15 -4 15 -12 0 -16 10
-16 40 0 29 4 40 15 40 13 0 15 11 13 58 -3 48 0 60 17 74 12 9 31 51 45 95
38 124 124 239 220 296 39 23 149 64 215 80 44 11 102 5 143 -13z m1602 -246
c0 -72 -121 -384 -149 -384 -12 0 -5 45 16 105 7 22 25 78 39 125 29 98 73
200 85 200 5 0 9 -21 9 -46z m-1626 -295 c26 -30 43 -76 48 -131 8 -68 1 -73
-70 -59 -45 9 -71 9 -103 0 -24 -6 -81 -12 -127 -15 l-83 -3 72 77 c125 134
220 181 263 131z"/>
<path d="M4543 6385 c-40 -17 -23 -75 45 -154 l38 -44 -43 -76 c-41 -71 -49
-105 -44 -171 4 -52 37 -124 78 -167 36 -40 45 -45 70 -38 40 10 49 19 88 99
33 64 36 78 34 144 l-2 73 33 18 c39 21 66 67 76 130 9 58 -5 49 -51 -33 -20
-35 -43 -67 -51 -70 -14 -5 -15 0 -8 36 19 94 -4 238 -36 238 -18 0 -34 -25
-25 -40 3 -5 7 -28 9 -52 l4 -44 -41 -12 c-41 -11 -43 -11 -73 23 -30 33 -70
105 -76 135 -2 12 -8 13 -25 5z m185 -247 c8 -24 16 -77 18 -118 4 -70 4 -73
-8 -41 -7 19 -21 39 -30 45 -25 16 -71 -4 -87 -39 -18 -37 -2 -103 36 -154 14
-18 20 -32 13 -29 -26 8 -64 100 -68 164 -4 53 0 70 23 111 27 50 70 103 83
103 4 0 13 -19 20 -42z"  />
<path d="M3627 6269 c-9 -5 -24 -26 -32 -44 -12 -31 -17 -34 -44 -29 -42 9
-62 -9 -54 -49 14 -74 85 -230 118 -261 14 -13 25 -28 25 -35 0 -6 13 -11 29
-11 36 0 80 53 88 108 5 28 21 51 66 95 32 32 56 61 54 64 -10 9 -45 -7 -88
-42 l-44 -34 -19 30 c-18 29 -18 32 -3 65 9 19 35 54 57 78 45 48 48 56 22 56
-26 0 -58 -25 -101 -80 -29 -36 -41 -46 -50 -37 -15 15 -14 51 4 94 8 19 15
37 15 39 0 7 -25 3 -43 -7z"  />
<path d="M4357 5517 c-52 -10 -63 -23 -68 -77 -4 -42 49 -153 99 -208 26 -28
32 -41 27 -61 -8 -30 -33 -61 -50 -61 -7 0 -18 -6 -24 -14 -23 -27 -81 1 -81
39 0 18 -4 22 -20 18 -16 -4 -20 -14 -20 -44 0 -50 23 -63 102 -57 l59 4 56
-63 c62 -70 85 -77 133 -43 27 19 117 182 126 225 2 11 6 32 10 48 5 23 3 27
-14 27 -22 0 -62 -43 -62 -66 0 -18 -10 -18 -61 5 l-42 19 -2 119 c-2 134 -14
181 -51 188 -55 11 -71 12 -117 2z" fill='rgb(38, 116, 112)'/>
</g>
</svg>
