<?xml version="1.0" standalone="no"?>
<!DOCTYPE svg PUBLIC "-//W3C//DTD SVG 20010904//EN"
 "http://www.w3.org/TR/2001/REC-SVG-20010904/DTD/svg10.dtd">
<svg version="1.0" xmlns="http://www.w3.org/2000/svg"
 width="579.000000pt" height="749.000000pt" viewBox="0 0 579.000000 749.000000"
 preserveAspectRatio="xMidYMid meet">
<metadata>
Created by potrace 1.15, written by Peter Selinger 2001-2017
</metadata>
<g transform="translate(0.000000,749.000000) scale(0.100000,-0.100000)"
fill="#000000" stroke="none">
<path d="M5510 7394 c-100 -71 -143 -99 -220 -148 -155 -99 -182 -119 -318
-234 l-52 -44 -103 1 c-56 1 -132 6 -169 11 -155 22 -969 1 -1034 -26 -38 -16
-77 -12 -99 9 -29 28 -203 145 -265 177 -25 14 -54 32 -65 42 -11 9 -40 24
-65 33 -24 9 -51 22 -60 29 -8 7 -27 16 -42 20 -15 3 -58 20 -95 37 -126 58
-181 79 -203 79 -25 0 -67 -53 -80 -100 -14 -51 -14 -218 0 -295 5 -33 10 -70
10 -83 0 -20 -3 -21 -21 -12 -35 19 -33 3 4 -41 20 -23 39 -55 42 -73 14 -70
49 -166 96 -261 41 -82 50 -111 53 -165 4 -75 40 -189 96 -305 21 -44 46 -98
55 -120 31 -73 49 -110 55 -115 6 -5 31 -50 115 -205 18 -33 39 -71 46 -85 37
-68 155 -233 198 -278 47 -48 49 -53 61 -135 25 -178 -16 -532 -100 -862 -24
-93 -99 -325 -111 -341 -5 -5 -6 -26 -3 -45 7 -40 -19 -218 -48 -334 -44 -177
-114 -405 -206 -670 -168 -481 -220 -649 -242 -765 -15 -85 -84 -325 -110
-385 -5 -11 -29 -71 -54 -132 -86 -213 -177 -362 -294 -484 -111 -117 -142
-134 -226 -126 -101 9 -167 38 -272 118 -146 112 -194 175 -245 324 -52 150
-80 313 -89 505 -11 232 -4 915 11 1110 20 263 16 1008 -7 1305 -16 207 -82
524 -150 716 -25 72 -92 222 -124 279 -11 19 -32 61 -46 93 -15 31 -33 57 -40
57 -8 0 -11 6 -8 15 6 14 -23 67 -61 113 -8 9 -35 43 -61 75 -29 36 -53 56
-61 53 -8 -4 -11 -1 -7 5 15 24 -178 178 -287 228 -79 37 -102 42 -208 48 -64
4 -82 2 -76 -7 5 -9 2 -10 -13 -6 -35 11 -89 -23 -114 -73 -13 -25 -33 -57
-46 -71 -43 -48 -90 -125 -97 -159 -6 -26 -4 -32 6 -26 9 6 11 3 6 -9 -4 -10
-7 -21 -7 -24 0 -4 -4 -1 -8 6 -6 8 -13 -6 -21 -41 -11 -45 -11 -60 3 -100 9
-26 16 -54 16 -62 0 -8 8 -23 18 -33 9 -10 22 -27 28 -38 19 -33 58 -46 102
-35 44 12 67 32 90 81 14 29 23 35 54 38 34 3 37 1 48 -34 19 -57 6 -458 -21
-659 -11 -88 -23 -176 -26 -195 -2 -19 -13 -96 -23 -170 -39 -277 -92 -808
-90 -897 1 -21 -4 -108 -10 -193 -33 -442 26 -1121 135 -1545 77 -301 222
-611 369 -790 197 -240 488 -494 662 -577 126 -60 261 -79 361 -52 18 5 21 3
16 -15 -3 -12 -2 -21 2 -21 13 0 129 31 190 51 98 32 191 49 274 49 65 0 81 3
96 20 10 11 15 23 11 28 -4 4 -50 9 -103 10 l-95 4 19 21 c11 12 30 47 43 77
44 100 108 182 236 300 141 132 198 160 324 160 92 0 128 -17 199 -92 69 -74
228 -414 213 -456 -2 -7 4 -19 13 -26 10 -7 19 -31 22 -59 5 -39 3 -48 -13
-54 -40 -14 -46 -53 -9 -53 20 0 25 -5 25 -24 0 -21 -18 -85 -26 -95 -6 -7
-74 33 -74 44 0 5 -7 23 -15 39 -9 16 -12 39 -9 53 6 21 3 24 -12 21 -53 -10
-55 -129 -3 -172 37 -31 37 -42 2 -21 -33 20 -63 74 -63 116 0 33 -22 48 -45
29 -8 -7 -15 -23 -15 -36 0 -37 -16 -28 -39 21 -32 68 -29 76 23 69 38 -6 44
-4 49 15 6 23 -8 32 -68 47 -27 7 -29 16 -40 137 -5 51 -14 79 -38 118 l-32
50 -61 -4 c-80 -6 -118 -31 -263 -173 -64 -63 -123 -114 -132 -114 -20 0 -46
-29 -51 -55 -5 -30 47 -33 77 -5 21 20 34 22 125 22 56 0 154 -8 216 -18 93
-15 114 -21 114 -35 0 -41 74 -165 150 -251 45 -52 65 -59 75 -28 3 11 17 23
31 26 13 3 28 13 33 22 5 9 24 15 46 16 35 1 40 5 60 45 12 24 28 67 35 96 13
52 13 52 64 64 28 6 80 15 116 20 36 5 78 14 93 20 36 14 43 10 58 -37 13 -39
93 -123 142 -148 39 -21 77 -10 118 32 l34 35 -1 102 c0 106 -20 177 -49 177
-20 0 -24 23 -25 140 -3 233 10 905 19 1060 6 91 13 242 15 335 7 241 14 332
26 356 9 17 8 23 -6 33 -14 11 -16 22 -9 82 5 38 8 75 8 82 0 6 -1 28 -2 47
-1 24 -5 33 -14 29 -12 -4 -26 -58 -43 -159 -2 -16 -7 -36 -9 -43 -2 -7 -7
-151 -10 -320 -3 -169 -10 -377 -15 -462 -5 -85 -12 -390 -15 -677 -2 -286 -5
-525 -7 -530 -6 -20 24 -54 45 -51 27 4 35 -22 36 -123 1 -85 -10 -104 -52
-94 -35 9 -103 72 -127 117 -40 76 -64 215 -85 508 -9 118 -22 289 -30 380 -8
91 -15 208 -15 261 0 52 -4 142 -9 200 -9 96 -23 340 -36 619 -3 63 -14 187
-25 275 -11 88 -20 177 -20 198 0 33 -3 37 -25 37 -24 0 -25 -2 -25 -64 0 -36
9 -136 20 -223 10 -87 21 -228 24 -313 9 -267 16 -402 26 -500 5 -52 12 -167
15 -255 3 -88 13 -232 20 -320 8 -88 17 -198 20 -245 9 -149 24 -313 35 -375
17 -102 17 -102 -42 -114 -29 -5 -82 -15 -118 -20 -36 -6 -75 -13 -87 -17 -19
-5 -23 -3 -23 17 0 13 -9 65 -19 114 -11 50 -27 137 -36 195 -35 233 -82 326
-215 426 -99 75 -184 114 -251 114 -80 0 -209 -35 -303 -82 -169 -85 -283
-265 -300 -476 -3 -30 -10 -59 -16 -67 -6 -7 -14 -42 -18 -79 -5 -36 -10 -68
-13 -70 -7 -7 -235 -76 -250 -76 -10 1 -9 5 5 15 32 24 14 25 -53 5 -75 -24
-132 -25 -226 -5 -171 36 -354 158 -601 401 -156 153 -200 204 -276 312 -164
237 -317 658 -364 1002 -2 19 -9 60 -14 90 -13 71 -37 287 -47 420 -13 177 -7
844 11 1050 18 214 52 544 68 645 43 292 79 580 75 597 -3 9 -1 18 4 20 5 2
10 115 12 253 2 293 -1 308 -68 313 -51 4 -102 -28 -130 -81 -38 -71 -98 -55
-144 37 -52 103 -33 244 49 356 26 36 61 86 78 112 39 58 78 72 173 66 45 -4
70 -1 73 6 2 6 5 3 5 -7 1 -10 5 -16 10 -13 4 3 27 -4 50 -15 23 -11 47 -17
53 -13 6 4 8 3 5 -3 -4 -6 8 -17 26 -24 17 -7 37 -18 44 -24 6 -5 26 -21 45
-35 75 -57 210 -196 268 -278 52 -73 207 -367 247 -467 63 -161 124 -408 164
-670 30 -194 46 -949 25 -1245 -7 -113 -15 -252 -16 -310 -1 -58 -5 -152 -10
-210 -7 -101 -5 -694 4 -735 2 -11 7 -67 11 -125 15 -225 92 -522 152 -588 7
-7 13 -17 13 -22 0 -28 212 -202 297 -244 55 -28 151 -49 207 -47 58 2 119 42
232 155 83 83 114 123 173 222 143 245 251 528 320 844 26 117 150 502 266
825 41 114 155 488 179 585 23 94 46 236 51 305 2 35 23 118 49 195 65 196
108 378 145 615 17 109 31 344 24 403 -3 28 -3 52 1 52 4 0 21 -13 39 -29 162
-144 236 -194 352 -235 39 -13 104 -38 145 -56 123 -52 202 -68 399 -81 224
-15 287 -6 384 51 81 47 79 51 77 -133 -1 -73 -1 -163 -1 -202 0 -85 -22 -251
-49 -360 -11 -44 -34 -141 -50 -215 -17 -74 -39 -162 -50 -195 -11 -33 -33
-103 -50 -155 -17 -52 -40 -144 -50 -205 -84 -492 -99 -569 -139 -738 -32
-130 -53 -239 -72 -367 -6 -41 -20 -120 -30 -175 -49 -251 -67 -527 -51 -805
l8 -154 -41 -81 c-46 -91 -60 -127 -82 -205 -8 -30 -18 -59 -22 -65 -5 -5 -16
-41 -26 -78 -29 -107 -38 -71 -39 140 0 181 4 264 25 478 5 55 14 159 19 230
9 127 24 252 36 308 6 30 11 86 18 198 2 36 9 109 16 162 6 53 9 101 6 106 -3
5 -14 7 -25 4 -21 -5 -30 -42 -56 -218 -9 -60 -20 -116 -25 -125 -5 -9 -4 -23
1 -32 6 -11 2 -73 -10 -175 -11 -87 -25 -221 -31 -298 -7 -77 -18 -207 -25
-290 -11 -130 -12 -470 -2 -583 4 -43 21 -60 42 -42 13 11 18 10 30 -6 58 -77
31 -166 -41 -135 -35 14 -94 64 -94 80 0 6 -4 11 -9 11 -5 0 -11 8 -14 18 -48
167 -49 174 -51 397 -2 134 2 271 10 350 7 72 16 175 19 230 22 390 56 636
107 773 23 61 18 73 -19 52 -41 -24 -96 -205 -108 -355 -3 -49 -15 -173 -26
-275 -10 -102 -19 -217 -19 -255 0 -39 -6 -122 -14 -185 -9 -75 -13 -194 -11
-341 2 -193 6 -239 25 -315 30 -120 61 -175 124 -219 58 -40 101 -45 147 -18
37 22 72 92 68 136 -3 26 5 45 33 83 38 53 88 161 108 237 13 49 19 54 37 36
8 -8 16 -7 31 2 19 12 19 13 1 53 -10 23 -19 56 -19 74 0 18 -7 44 -16 58 -12
17 -15 38 -12 69 3 24 2 45 -3 47 -11 4 -21 215 -20 398 2 181 16 330 46 485
13 66 26 143 29 172 8 77 33 210 71 368 36 153 85 402 110 560 40 262 44 276
149 625 13 41 33 120 46 175 12 55 32 145 45 200 13 55 28 141 34 190 15 130
21 418 11 504 l-8 75 50 55 c127 143 290 419 537 916 134 269 120 217 161 610
6 56 16 103 23 107 9 6 9 10 -2 17 -9 6 -12 19 -8 40 4 17 3 41 -2 54 -6 15
-2 79 10 178 15 114 19 200 17 334 l-3 180 -33 68 c-44 88 -55 87 -192 -9z
m144 -27 c9 -23 16 -46 16 -51 0 -4 -76 -87 -170 -184 -93 -96 -170 -180 -170
-185 0 -9 -80 -109 -106 -132 -24 -21 -44 -61 -44 -85 0 -24 2 -25 47 -21 43
3 46 2 34 -13 -11 -14 -11 -16 3 -16 9 0 16 4 16 9 0 5 24 8 54 6 46 -2 111
-23 166 -55 8 -5 38 -20 65 -34 84 -43 90 -58 76 -189 -7 -62 -16 -137 -21
-167 -5 -30 -9 -76 -9 -103 -1 -26 -12 -79 -26 -118 -40 -116 -374 -753 -471
-899 -94 -141 -167 -230 -190 -230 -8 0 -18 -10 -23 -22 -18 -45 -108 -105
-192 -128 -63 -16 -373 3 -479 30 -68 18 -176 57 -218 80 -9 5 -42 17 -72 26
-104 32 -209 99 -315 201 -28 26 -67 63 -89 81 -21 18 -41 45 -45 60 -4 15
-16 29 -27 30 -45 9 -112 98 -244 326 -153 265 -307 579 -316 647 -5 37 -3 47
15 63 18 16 24 17 51 6 42 -17 63 1 51 45 -6 23 -3 36 11 58 11 15 25 27 32
27 7 0 21 9 31 20 10 11 23 20 29 20 6 0 19 14 28 30 16 29 72 70 94 70 7 0
14 -10 17  -22 4 -12 9 -19 13 -15 4 3 1 20 -6 37 -10 24 -18 30 -44 30 -28 0
-50 18 -166 137 -74 75 -191 192 -259 259 l-124 123 5 83 c6 96 22 138 53 138
11 0 25 -4 31 -9 5 -4 45 -23 89 -41 44 -18 107 -46 140 -62 55 -27 82 -42
222 -120 26 -15 84 -52 128 -82 44 -30 105 -72 134 -92 l55 -36 60 21 c58 20
84 21 476 24 268 2 470 -2 570 -10 275 -22 374 -25 390 -13 13 9 13 12 -3 24
-10 8 -27 12 -37 9 -28 -7 -25 7 8 35 50 44 206 158 267 194 124 73 152 92
250 158 55 38 105 69 111 70 6 0 19 -19 28 -43z m-2857 -6207 c56 -25 201
-126 236 -164 35 -39 73 -110 81 -156 6 -31 3 -28 -26 25 -41 74 -134 168
-196 196 -40 18 -60 20 -129 15 -139 -9 -206 -47 -382 -219 -117 -115 -149
-155 -192 -239 -18 -37 -35 -66 -36 -64 -2 1 3 22 11 47 7 24 28 96 47 159 61
212 161 323 349 384 131 42 174 45 237 16z m1603 -246 c0 -72 -121 -384 -149
-384 -12 0 -5 45 16 105 7 22 25 78 39 125 29 98 73 200 85 200 5 0 9 -21 9
-46z m-1626 -295 c26 -30 43 -76 48 -131 8 -68 1 -73 -70 -59 -45 9 -71 9
-103 0 -24 -6 -81 -12 -127 -15 l-83 -3 72 77 c125 134 220 181 263 131z"/>
<!-- левый глаз -->
<path d="M4543 6385 c-40 -17 -23 -75 45 -154 l38 -44 -43 -76 c-41 -71 -49
-105 -44 -171 4 -52 37 -124 78 -167 36 -40 45 -45 70 -38 40 10 49 19 88 99
33 64 36 78 34 144 l-2 73 33 18 c39 21 66 67 76 130 9 58 -5 49 -51 -33 -20
-35 -43 -67 -51 -70 -14 -5 -15 0 -8 36 19 94 -4 238 -36 238 -18 0 -34 -25
-25 -40 3 -5 7 -28 9 -52 l4 -44 -41 -12 c-41 -11 -43 -11 -73 23 -30 33 -70
105 -76 135 -2 12 -8 13 -25 5z m185 -247 c8 -24 16 -77 18 -118 4 -70 4 -73
-8 -41 -7 19 -21 39 -30 45 -25 16 -71 -4 -87 -39 -18 -37 -2 -103 36 -154 14
-18 20 -32 13 -29 -26 8 -64 100 -68 164 -4 53 0 70 23 111 27 50 70 103 83
103 4 0 13 -19 20 -42z" />
<!-- правый глаз -->
<path d="M3627 6269 c-9 -5 -24 -26 -32 -44 -12 -31 -17 -34 -44 -29 -42 9
-62 -9 -54 -49 14 -74 85 -230 118 -261 14 -13 25 -28 25 -35 0 -6 13 -11 29
-11 36 0 80 53 88 108 5 28 21 51 66 95 32 32 56 61 54 64 -10 9 -45 -7 -88
-42 l-44 -34 -19 30 c-18 29 -18 32 -3 65 9 19 35 54 57 78 45 48 48 56 22 56
-26 0 -58 -25 -101 -80 -29 -36 -41 -46 -50 -37 -15 15 -14 51 4 94 8 19 15
37 15 39 0 7 -25 3 -43 -7z" />
<!-- нос и рот -->
<path d="M4395 5505 c-27 -8 -45 -9 -56 -2 -13 8 -24 2 -53 -26 -26 -26 -32
-38 -23 -44 7 -4 30 -43 52 -86 22 -43 55 -94 73 -114 26 -29 32 -42 27 -62
-8 -30 -33 -61 -50 -61 -7 0 -18 -6 -24 -14 -23 -27 -81 1 -81 39 0 18 -4 22
-20 18 -16 -4 -20 -14 -20 -44 0 -50 23 -63 102 -57 l59 4 56 -63 c62 -70 85
-77 134 -42 16 11 43 51 63 90 25 53 42 75 67 87 42 22 49 42 14 42 -22 0 -26
3 -20 18 19 44 18 62 -3 62 -22 0 -62 -43 -62 -66 0 -19 -9 -18 -63 6 l-45 20
5 82 c6 91 -10 189 -33 213 -18 18 -44 18 -99 0z" />
</g>
</svg>
